<?xml version="1.0" standalone="no"?>
<!DOCTYPE svg PUBLIC "-//W3C//DTD SVG 1.0//EN" "http://www.w3.org/TR/2001/REC-SVG-20010904/DTD/svg10.dtd">
<svg xmlns="http://www.w3.org/2000/svg" xmlns:xlink="http://www.w3.org/1999/xlink" id="body_1" width="176" height="52">

<defs>
    <clipPath  id="1">

    <path id=""  clip-rule="evenodd" transform="matrix(1 0 0 1 0 0)"  d="M0 39L0 0L0 0L132.75 0L132.75 0L132.75 39L132.75 39L0 39z" />    </clipPath>
</defs>

<g transform="matrix(1.3333 0 0 1.3333 0 0)">
	<g clip-path="url(#1)" >
    <path id=""  transform="matrix(1 0 0 -1 0 39)"  d="M18.363825 22.771801L18.363825 22.771801L18.363825 22.771801L18.363825 22.771801L18.363825 22.771801L18.363825 24.080551L18.363825 24.080551L20.6112 25.71645L20.6112 25.71645L22.537426 26.697975L22.537426 26.697975L22.537426 26.697975L22.537426 26.697975L20.290125 26.697975L20.290125 26.697975L18.299625 25.5201L18.299625 25.5201L17.079674 24.4077L17.079674 24.4077L17.079674 24.4077L17.079674 24.4077L17.079674 22.771801L17.079674 22.771801L17.079674 22.771801L17.079674 22.771801L18.363825 22.771801zM48.54225 13.741577L48.54225 13.741577L48.54225 13.741577L51.495827 9.291977L51.495827 9.291977L52.458973 9.684601L52.458973 9.684601L51.23903 11.516777L51.23903 11.516777L48.54225 14.39595L48.54225 14.39595L48.54225 14.39595L48.54225 14.39595L48.54225 13.741577zM5.8430476 21.463049L5.8430476 21.463049L5.8430476 21.463049L7.833525 22.44465L7.833525 22.44465L10.979774 27.156075L10.979774 27.156075L11.9429245 27.548626L11.9429245 27.548626L12.970274 22.771801L12.970274 22.771801L11.62185 22.575525L11.62185 22.575525L10.594501 24.538574L10.594501 24.538574L9.824024 21.463049L9.824024 21.463049L9.824024 21.463049L9.824024 21.463049L13.227076 21.463049L13.227076 21.463049L16.7586 20.547L16.7586 20.547L18.171225 21.463049L18.171225 21.463049L20.547 18.9765L20.547 18.9765L21.57435 23.55705L21.57435 23.55705L23.243774 21.855675L23.243774 21.855675L24.271126 23.2953L24.271126 23.2953L25.940548 23.753326L25.940548 23.753326L28.380524 26.0436L28.380524 26.0436L28.765726 27.156075L28.765726 27.156075L30.756226 26.82885L30.756226 26.82885L31.590975 25.71645L31.590975 25.71645L30.11415 22.575525L30.11415 22.575525L33.774075 24.473175L33.774075 24.473175L33.774075 24.473175L33.774075 24.473175L33.774075 25.3893L33.774075 25.3893L35.1867 25.71645L35.1867 25.71645L36.727722 24.14595L36.727722 24.14595L38.268753 26.0436L38.268753 26.0436L38.268753 26.0436L38.268753 26.0436L38.268753 27.35235L38.268753 27.35235L40.772926 29.119125L40.772926 29.119125L41.800274 30.62415L41.800274 30.62415L41.800274 30.62415L41.800274 30.62415L43.405502 30.62415L43.405502 30.62415L46.230675 36.44799L46.230675 36.44799L48.670654 39L48.670654 39L49.569523 37.560406L49.569523 37.560406L48.156975 35.728184L48.156975 35.728184L48.670654 34.55033L48.670654 34.55033L50.019 34.28859L50.019 34.28859L51.11055 29.446274L51.11055 29.446274L51.11055 29.446274L51.11055 29.446274L51.11055 25.3893L51.11055 25.3893L53.03685 22.7064L53.03685 22.7064L54 18.9765L54 18.9765L50.66115 21.1359L50.66115 21.1359L49.184326 27.35235L49.184326 27.35235L48.285378 27.156075L48.285378 27.156075L48.156975 22.968151L48.156975 22.968151L45.717003 18.9765L45.717003 18.9765L45.010727 12.890926L45.010727 12.890926L46.68015 12.498299L46.68015 12.498299L47.386425 13.349024L47.386425 13.349024L48.991646 11.516777L48.991646 11.516777L50.211674 6.0200996L50.211674 6.0200996L50.083202 2.4865494L50.083202 2.4865494L50.083202 2.4865494L50.083202 2.4865494L48.54225 2.4865494L48.54225 2.4865494L47.964302 7.4597244L47.964302 7.4597244L46.87275 5.9547005L46.87275 5.9547005L44.497047 6.478199L44.497047 6.478199L42.57075 8.114101L42.57075 8.114101L40.38765 7.32885L40.38765 7.32885L40.516052 3.7952995L40.516052 3.7952995L38.782425 3.3372726L38.782425 3.3372726L36.21405 1.3741493L36.21405 1.3741493L33.132 1.766777L33.132 1.766777L31.91205 2.4865494L31.91205 2.4865494L29.985748 2.159401L29.985748 2.159401L30.627827 1.3741493L30.627827 1.3741493L29.0868 0.45802307L29.0868 0.45802307L27.86685 1.0470009L27.86685 1.0470009L25.555275 0L25.555275 0L22.02375 1.766777L22.02375 1.766777L20.6754 4.9076996L20.6754 4.9076996L19.51965 4.776825L19.51965 4.776825L18.171225 5.889225L18.171225 5.889225L18.107025 6.7399483L18.107025 6.7399483L13.805025 7.197975L13.805025 7.197975L13.098675 4.8423004L13.098675 4.8423004L10.401899 6.085575L10.401899 6.085575L9.053474 8.375851L9.053474 8.375851L9.053474 8.375851L9.053474 8.375851L6.1640925 8.375851L6.1640925 8.375851L5.8430476 4.711426L5.8430476 4.711426L4.1735997 4.1879272L4.1735997 4.1879272L3.33888 0.8506508L3.33888 0.8506508L2.69679 1.4396248L2.69679 1.4396248L0 8.44125L0 8.44125L3.210465 10.011749L3.210465 10.011749L2.69679 13.087275L2.69679 13.087275L2.183115 16.228199L2.183115 16.228199L3.5957174 18.256725L3.5957174 18.256725L3.1462576 19.5L3.1462576 19.5L5.072535 21.593925L5.072535 21.593925L5.8430476 21.463049z" stroke="#FFFFFF" stroke-width="1" fill="#FFFFFF" fill-rule="nonzero" />
    <path id=""  transform="matrix(1 0 0 -1 0 39)"  d="M71.147705 14.8974L71.147705 14.8974L71.147705 14.8974L71.147705 14.8974L71.147705 14.8974L71.147705 18.5025L71.147705 18.5025L71.147705 18.5025L71.147705 18.5025L72.40057 18.5025L72.40057 18.5025L72.40057 18.5025C 73.647 18.5025 74.3949 17.8377 74.3949 16.7127L74.3949 16.7127L74.3949 16.7127C 74.3949 15.594151 73.647 14.8974 72.40057 14.8974L72.40057 14.8974L72.40057 14.8974L72.40057 14.8974L71.147705 14.8974zM67.59375 8.249699L67.59375 8.249699L67.59375 8.249699L67.59375 8.249699L67.59375 8.249699L71.147705 8.249699L71.147705 8.249699L71.147705 8.249699L71.147705 8.249699L71.147705 12.136051L71.147705 12.136051L71.147705 12.136051L71.147705 12.136051L73.116455 12.136051L73.116455 12.136051L73.116455 12.136051C 76.10175 12.136051 78.102005 13.893826 78.102005 16.7127L78.102005 16.7127L78.102005 16.7127C 78.102005 19.499699 76.152756 21.340574 73.24432 21.340574L73.24432 21.340574L73.24432 21.340574L73.24432 21.340574L67.59375 21.340574L67.59375 21.340574L67.59375 21.340574L67.59375 21.340574L67.59375 8.249699z" stroke="#FFFFFF" stroke-width="1" fill="#FFFFFF" fill-rule="nonzero" />
    <path id=""  transform="matrix(1 0 0 -1 0 39)"  d="M84.00225 10.67865C 83.05575 10.67865 82.49325 11.618252 82.49325 13.158749L82.49325 13.158749L82.49325 13.158749C 82.49325 14.699249 83.05575 15.638851 84.00225 15.638851L84.00225 15.638851L84.00225 15.638851C 84.897 15.638851 85.4595 14.699249 85.4595 13.158749L85.4595 13.158749L85.4595 13.158749C 85.4595 11.618252 84.897 10.67865 84.00225 10.67865zM83.97675 8.070675C 87.1725 8.070675 89.06475 10.11615 89.06475 13.133175L89.06475 13.133175L89.06475 13.133175C 89.06475 16.1502 87.1725 18.195675 83.97675 18.195675L83.97675 18.195675L83.97675 18.195675C 80.78025 18.195675 78.88875 16.1502 78.88875 13.133175L78.88875 13.133175L78.88875 13.133175C 78.88875 10.11615 80.78025 8.070675 83.97675 8.070675z" stroke="#FFFFFF" stroke-width="1" fill="#FFFFFF" fill-rule="nonzero" />
    <path id=""  transform="matrix(1 0 0 -1 0 39)"  d="M95.22675 8.070675C 98.135254 8.070675 99.918 9.739052 99.957 12.340576L99.957 12.340576L99.957 12.340576L99.957 12.340576L96.684006 12.340576L96.684006 12.340576L96.684006 12.340576C 96.6075 11.311426 96.050995 10.755375 95.277756 10.755375L95.277756 10.755375L95.277756 10.755375C 94.35075 10.755375 93.74325 11.547976 93.74325 13.158749L93.74325 13.158749L93.74325 13.158749C 93.74325 14.769524 94.35075 15.562199 95.277756 15.562199L95.277756 15.562199L95.277756 15.562199C 96.05775 15.562199 96.588 15.006075 96.684006 13.976925L96.684006 13.976925L96.684006 13.976925L96.684006 13.976925L99.957 13.976925L99.957 13.976925L99.957 13.976925C 99.9375 16.53375 98.11575 18.195675 95.22675 18.195675L95.22675 18.195675L95.22675 18.195675C 92.03025 18.195675 90.13875 16.1502 90.13875 13.133175L90.13875 13.133175L90.13875 13.133175C 90.13875 10.11615 92.03025 8.070675 95.22675 8.070675z" stroke="#FFFFFF" stroke-width="1" fill="#FFFFFF" fill-rule="nonzero" />
    <path id=""  transform="matrix(1 0 0 -1 0 39)"  d="M106.14224 8.070675C 109.05075 8.070675 110.83426 9.739052 110.8725 12.340576L110.8725 12.340576L110.8725 12.340576L110.8725 12.340576L107.60025 12.340576L107.60025 12.340576L107.60025 12.340576C 107.522995 11.311426 106.967255 10.755375 106.194 10.755375L106.194 10.755375L106.194 10.755375C 105.267 10.755375 104.6595 11.547976 104.6595 13.158749L104.6595 13.158749L104.6595 13.158749C 104.6595 14.769524 105.267 15.562199 106.194 15.562199L106.194 15.562199L106.194 15.562199C 106.97325 15.562199 107.50426 15.006075 107.60025 13.976925L107.60025 13.976925L107.60025 13.976925L107.60025 13.976925L110.8725 13.976925L110.8725 13.976925L110.8725 13.976925C 110.853745 16.53375 109.032005 18.195675 106.14224 18.195675L106.14224 18.195675L106.14224 18.195675C 102.946495 18.195675 101.054245 16.1502 101.054245 13.133175L101.054245 13.133175L101.054245 13.133175C 101.054245 10.11615 102.946495 8.070675 106.14224 8.070675z" stroke="#FFFFFF" stroke-width="1" fill="#FFFFFF" fill-rule="nonzero" />
    <path id=""  transform="matrix(1 0 0 -1 0 39)"  d="M115.65225 12.749699L115.65225 12.749699L115.65225 12.749699L115.65225 12.749699L115.65225 12.749699L115.65225 18.067875L115.65225 18.067875L115.65225 18.067875L115.65225 18.067875L112.32825 18.067875L112.32825 18.067875L112.32825 18.067875L112.32825 18.067875L112.32825 8.249699L112.32825 8.249699L112.32825 8.249699L112.32825 8.249699L115.65225 8.249699L115.65225 8.249699L118.388245 13.593449L118.388245 13.593449L118.388245 13.593449L118.388245 13.593449L118.388245 8.249699L118.388245 8.249699L118.388245 8.249699L118.388245 8.249699L121.71225 8.249699L121.71225 8.249699L121.71225 8.249699L121.71225 8.249699L121.71225 18.067875L121.71225 18.067875L121.71225 18.067875L121.71225 18.067875L118.388245 18.067875L118.388245 18.067875L115.65225 12.749699z" stroke="#FFFFFF" stroke-width="1" fill="#FFFFFF" fill-rule="nonzero" />
    <path id=""  transform="matrix(1 0 0 -1 0 39)"  d="M129.159 13.61895L129.159 13.61895L129.159 13.61895L129.159 13.61895L129.159 13.61895L127.90575 13.61895L127.90575 13.61895L127.90575 13.61895C 126.965996 13.61895 126.53175 14.079226 126.55049 14.513849L126.55049 14.513849L126.55049 14.513849C 126.53175 14.922976 126.9405 15.434324 127.82925 15.434324L127.82925 15.434324L127.82925 15.434324L127.82925 15.434324L129.159 15.434324L129.159 15.434324L129.159 15.434324L129.159 15.434324L129.159 13.61895zM129.159 8.249699L129.159 8.249699L129.159 8.249699L129.159 8.249699L129.159 8.249699L132.43124 8.249699L132.43124 8.249699L132.43124 8.249699L132.43124 8.249699L132.43124 18.067875L132.43124 18.067875L132.43124 18.067875L132.43124 18.067875L127.82925 18.067875L127.82925 18.067875L127.82925 18.067875C 124.997246 18.067875 123.20775 16.636051 123.22725 14.641726L123.22725 14.641726L123.22725 14.641726C 123.21449 13.5231 123.884995 12.596249 125.061745 12.046574L125.061745 12.046574L123.1245 8.249699L123.1245 8.249699L123.1245 8.249699L123.1245 8.249699L126.372 8.249699L126.372 8.249699L128.02725 11.496826L128.02725 11.496826L128.02725 11.496826L128.02725 11.496826L129.159 11.496826L129.159 11.496826L129.159 11.496826L129.159 11.496826L129.159 8.249699z" stroke="#FFFFFF" stroke-width="1" fill="#FFFFFF" fill-rule="nonzero" />
	</g>
</g>
</svg>